<svg id="visual" viewBox="0 0 900 300" width="900" height="300" xmlns="http://www.w3.org/2000/svg" xmlns:xlink="http://www.w3.org/1999/xlink" version="1.1"><rect x="0" y="0" width="900" height="300" fill="#131313"></rect><path d="M0 162L12.5 158.5C25 155 50 148 75 146.5C100 145 125 149 150 148.3C175 147.7 200 142.3 225 141.2C250 140 275 143 300 146.5C325 150 350 154 375 151.3C400 148.7 425 139.3 450 137C475 134.7 500 139.3 525 140.3C550 141.3 575 138.7 600 136.2C625 133.7 650 131.3 675 136.5C700 141.7 725 154.3 750 158.8C775 163.3 800 159.7 825 154C850 148.3 875 140.7 887.5 136.8L900 133L900 0L887.5 0C875 0 850 0 825 0C800 0 775 0 750 0C725 0 700 0 675 0C650 0 625 0 600 0C575 0 550 0 525 0C500 0 475 0 450 0C425 0 400 0 375 0C350 0 325 0 300 0C275 0 250 0 225 0C200 0 175 0 150 0C125 0 100 0 75 0C50 0 25 0 12.5 0L0 0Z" fill="#e3ffee"></path><path d="M0 119L12.5 120C25 121 50 123 75 124.2C100 125.3 125 125.7 150 123.3C175 121 200 116 225 114.3C250 112.7 275 114.3 300 112.8C325 111.3 350 106.7 375 105C400 103.3 425 104.7 450 110.5C475 116.3 500 126.7 525 127.7C550 128.7 575 120.3 600 117.8C625 115.3 650 118.7 675 119.3C700 120 725 118 750 118.7C775 119.3 800 122.7 825 120.7C850 118.7 875 111.3 887.5 107.7L900 104L900 0L887.5 0C875 0 850 0 825 0C800 0 775 0 750 0C725 0 700 0 675 0C650 0 625 0 600 0C575 0 550 0 525 0C500 0 475 0 450 0C425 0 400 0 375 0C350 0 325 0 300 0C275 0 250 0 225 0C200 0 175 0 150 0C125 0 100 0 75 0C50 0 25 0 12.5 0L0 0Z" fill="#b7e4cc"></path><path d="M0 85L12.5 88C25 91 50 97 75 98.3C100 99.7 125 96.3 150 91.2C175 86 200 79 225 78.7C250 78.3 275 84.7 300 87.7C325 90.7 350 90.3 375 93.3C400 96.3 425 102.7 450 99.2C475 95.7 500 82.3 525 75.8C550 69.3 575 69.7 600 73.5C625 77.3 650 84.7 675 88C700 91.3 725 90.7 750 91.2C775 91.7 800 93.3 825 94.3C850 95.3 875 95.7 887.5 95.8L900 96L900 0L887.5 0C875 0 850 0 825 0C800 0 775 0 750 0C725 0 700 0 675 0C650 0 625 0 600 0C575 0 550 0 525 0C500 0 475 0 450 0C425 0 400 0 375 0C350 0 325 0 300 0C275 0 250 0 225 0C200 0 175 0 150 0C125 0 100 0 75 0C50 0 25 0 12.5 0L0 0Z" fill="#89c9ac"></path><path d="M0 52L12.5 51.7C25 51.3 50 50.7 75 54.7C100 58.7 125 67.3 150 72.3C175 77.3 200 78.7 225 74.2C250 69.7 275 59.3 300 53.7C325 48 350 47 375 46.8C400 46.7 425 47.3 450 46.7C475 46 500 44 525 48.7C550 53.3 575 64.7 600 66C625 67.3 650 58.7 675 56.3C700 54 725 58 750 59.3C775 60.7 800 59.3 825 59.8C850 60.3 875 62.7 887.5 63.8L900 65L900 0L887.5 0C875 0 850 0 825 0C800 0 775 0 750 0C725 0 700 0 675 0C650 0 625 0 600 0C575 0 550 0 525 0C500 0 475 0 450 0C425 0 400 0 375 0C350 0 325 0 300 0C275 0 250 0 225 0C200 0 175 0 150 0C125 0 100 0 75 0C50 0 25 0 12.5 0L0 0Z" fill="#57ae8e"></path><path d="M0 34L12.5 32C25 30 50 26 75 22.2C100 18.3 125 14.7 150 17.5C175 20.3 200 29.7 225 34.2C250 38.7 275 38.3 300 37.8C325 37.3 350 36.7 375 31.7C400 26.7 425 17.3 450 18.5C475 19.7 500 31.3 525 32.7C550 34 575 25 600 25.8C625 26.7 650 37.3 675 36.8C700 36.3 725 24.7 750 19.8C775 15 800 17 825 21.2C850 25.3 875 31.7 887.5 34.8L900 38L900 0L887.5 0C875 0 850 0 825 0C800 0 775 0 750 0C725 0 700 0 675 0C650 0 625 0 600 0C575 0 550 0 525 0C500 0 475 0 450 0C425 0 400 0 375 0C350 0 325 0 300 0C275 0 250 0 225 0C200 0 175 0 150 0C125 0 100 0 75 0C50 0 25 0 12.5 0L0 0Z" fill="#009473"></path></svg>